<svg xmlns="http://www.w3.org/2000/svg" viewBox="0 0 67 113.57"><defs><style>.cls-1{fill:#c7c6c6;}.cls-2,.cls-3{fill:#fff;}.cls-2,.cls-4{stroke:#fff;stroke-miterlimit:10;}.cls-4{fill:none;stroke-width:2.83px;}</style></defs><title>Ativo 8</title><g id="Camada_2" data-name="Camada 2"><g id="Camada_1-2" data-name="Camada 1"><g id="_3" data-name="3"><circle class="cls-1" cx="33.5" cy="33.5" r="33.5"/><circle class="cls-2" cx="15.83" cy="29.25" r="3"/><circle class="cls-2" cx="51.17" cy="29.25" r="3"/><circle class="cls-3" cx="25.66" cy="38.45" r="1.42"/><line class="cls-4" x1="25.66" y1="38.45" x2="38.67" y2="43.59"/><circle class="cls-3" cx="38.67" cy="43.59" r="1.42"/></g><path class="cls-1" d="M44.08,103.74a9.27,9.27,0,0,1-.91,4.2A8.65,8.65,0,0,1,40.65,111a11.15,11.15,0,0,1-3.86,1.9,17.8,17.8,0,0,1-4.92.65,19.42,19.42,0,0,1-3-.23,18.75,18.75,0,0,1-2.51-.58,11.09,11.09,0,0,1-1.79-.71,4.58,4.58,0,0,1-.93-.56,1.24,1.24,0,0,1-.33-.44,3.26,3.26,0,0,1-.2-.58,4.1,4.1,0,0,1-.12-.83c0-.33,0-.74,0-1.21a4.66,4.66,0,0,1,.2-1.63.62.62,0,0,1,.58-.45,2.17,2.17,0,0,1,.85.33,14.39,14.39,0,0,0,1.53.71,18.47,18.47,0,0,0,2.17.71,11.19,11.19,0,0,0,2.84.33,7.72,7.72,0,0,0,2.37-.32,5.24,5.24,0,0,0,1.75-.89,3.64,3.64,0,0,0,1.08-1.39,4.7,4.7,0,0,0,.35-1.83,4.43,4.43,0,0,0-.43-2,4,4,0,0,0-1.27-1.5,6.21,6.21,0,0,0-2.12-1,12.29,12.29,0,0,0-3-.34H27.06a1.62,1.62,0,0,1-.54-.08.75.75,0,0,1-.37-.36,2.11,2.11,0,0,1-.21-.75,10,10,0,0,1-.06-1.23,9.13,9.13,0,0,1,.06-1.16,2,2,0,0,1,.2-.7.74.74,0,0,1,.34-.34,1.12,1.12,0,0,1,.5-.1h2.77a8.72,8.72,0,0,0,2.51-.33,5.2,5.2,0,0,0,1.85-.94,4,4,0,0,0,1.14-1.48,4.64,4.64,0,0,0,.39-1.92,4.32,4.32,0,0,0-.27-1.53A3.46,3.46,0,0,0,34.58,87a3.82,3.82,0,0,0-1.36-.83,5.81,5.81,0,0,0-2-.3,7.43,7.43,0,0,0-2.39.37,14.82,14.82,0,0,0-2,.84c-.6.3-1.1.58-1.52.84a2,2,0,0,1-.92.39.74.74,0,0,1-.34-.08.62.62,0,0,1-.24-.33,2.55,2.55,0,0,1-.15-.71c0-.31-.05-.71-.05-1.2s0-.75,0-1a2.94,2.94,0,0,1,.09-.67,1.77,1.77,0,0,1,.19-.46,1.79,1.79,0,0,1,.35-.43,6.56,6.56,0,0,1,1-.7,11.87,11.87,0,0,1,1.91-.9,15.76,15.76,0,0,1,2.66-.75,16.63,16.63,0,0,1,3.26-.31,14,14,0,0,1,4.07.54,8.32,8.32,0,0,1,3,1.56A6.41,6.41,0,0,1,42,85.38a8.46,8.46,0,0,1,.62,3.34,9.66,9.66,0,0,1-.36,2.69,7.39,7.39,0,0,1-1.08,2.22,6.42,6.42,0,0,1-1.77,1.67,8,8,0,0,1-2.46,1v.08a9.16,9.16,0,0,1,3,.84,7.53,7.53,0,0,1,2.24,1.63,7.06,7.06,0,0,1,1.41,2.21A7.31,7.31,0,0,1,44.08,103.74Z"/></g></g></svg>