<svg xmlns="http://www.w3.org/2000/svg" viewBox="0 0 67 113"><defs><style>.cls-1,.cls-3{fill:#c7c6c6;}.cls-2,.cls-4{fill:#fff;}.cls-2,.cls-3{stroke:#fff;stroke-miterlimit:10;}.cls-3{stroke-width:2.83px;}</style></defs><title>Ativo 7</title><g id="Camada_2" data-name="Camada 2"><g id="Camada_1-2" data-name="Camada 1"><g id="_2" data-name="2"><circle class="cls-1" cx="33.5" cy="33.5" r="33.5"/><circle class="cls-2" cx="15.83" cy="29.25" r="3"/><circle class="cls-2" cx="51.17" cy="29.25" r="3"/><path class="cls-3" d="M22.63,44.5A12.13,12.13,0,0,1,34,38.25c6.29.45,9.4,5.84,9.63,6.25"/><circle class="cls-4" cx="22.66" cy="44.45" r="1.42"/><circle class="cls-4" cx="43.67" cy="44.59" r="1.42"/></g><path class="cls-1" d="M44.11,110.39a10.49,10.49,0,0,1-.06,1.21,3.6,3.6,0,0,1-.18.82.93.93,0,0,1-.32.45.76.76,0,0,1-.44.13H24.92a4.19,4.19,0,0,1-.93-.09,1.19,1.19,0,0,1-.64-.38,1.78,1.78,0,0,1-.35-.82,6.71,6.71,0,0,1-.11-1.4,11.11,11.11,0,0,1,.07-1.38,3.81,3.81,0,0,1,.27-1,4.38,4.38,0,0,1,.5-.89,10.67,10.67,0,0,1,.79-.94L30,100.21a28.75,28.75,0,0,0,2.64-3.11,19,19,0,0,0,1.57-2.57A10,10,0,0,0,35,92.39a8.84,8.84,0,0,0,.21-1.86A4.55,4.55,0,0,0,34.93,89a3.52,3.52,0,0,0-.76-1.26,3.32,3.32,0,0,0-1.26-.84,4.61,4.61,0,0,0-1.78-.31,8,8,0,0,0-2.56.37,11.92,11.92,0,0,0-1.95.82,15.17,15.17,0,0,0-1.41.83,1.85,1.85,0,0,1-.88.38.54.54,0,0,1-.38-.15,1.07,1.07,0,0,1-.26-.49,6.08,6.08,0,0,1-.16-.92,13.75,13.75,0,0,1-.06-1.4,8.23,8.23,0,0,1,0-.94,3.48,3.48,0,0,1,.11-.66,2,2,0,0,1,.19-.49,2.82,2.82,0,0,1,.43-.5,5.67,5.67,0,0,1,1.13-.75,13.19,13.19,0,0,1,2-.88A17.35,17.35,0,0,1,30,81.09a14.7,14.7,0,0,1,3-.3,13.36,13.36,0,0,1,4.31.63,8.46,8.46,0,0,1,3.07,1.73,7,7,0,0,1,1.82,2.65,8.87,8.87,0,0,1,.6,3.29,15.4,15.4,0,0,1-.29,3,11.72,11.72,0,0,1-1.22,3.21,25.75,25.75,0,0,1-2.62,3.82A62.42,62.42,0,0,1,34.23,104l-3.69,3.8H43a.76.76,0,0,1,.46.14,1.28,1.28,0,0,1,.35.45,2.94,2.94,0,0,1,.22.81A8.28,8.28,0,0,1,44.11,110.39Z"/></g></g></svg>