<svg xmlns="http://www.w3.org/2000/svg" viewBox="0 0 67 113"><defs><style>.cls-1{fill:#c7c6c6;}.cls-2,.cls-4{fill:#fff;}.cls-2,.cls-3{stroke:#fff;stroke-miterlimit:10;}.cls-3{fill:none;stroke-width:2.83px;}</style></defs><title>Ativo 6</title><g id="Camada_2" data-name="Camada 2"><g id="Camada_1-2" data-name="Camada 1"><g id="_1" data-name="1"><circle class="cls-1" cx="33.5" cy="33.5" r="33.5"/><circle class="cls-2" cx="15.83" cy="29.25" r="3"/><circle class="cls-2" cx="51.17" cy="29.25" r="3"/><path class="cls-3" d="M22.63,44.5A12.13,12.13,0,0,1,34,38.25c6.29.45,9.4,5.84,9.63,6.25"/><circle class="cls-4" cx="22.66" cy="44.45" r="1.42"/><circle class="cls-4" cx="43.67" cy="44.59" r="1.42"/><line class="cls-3" x1="46.75" y1="27.75" x2="54" y2="23.38"/><circle class="cls-4" cx="46.84" cy="27.69" r="1.42"/><circle class="cls-4" cx="53.96" cy="23.4" r="1.42"/><line class="cls-3" x1="20.05" y1="27.75" x2="12.8" y2="23.37"/><circle class="cls-4" cx="19.96" cy="27.69" r="1.42"/><circle class="cls-4" cx="12.84" cy="23.4" r="1.42"/></g><path class="cls-1" d="M43.23,110.56a7.67,7.67,0,0,1-.07,1.16,2.81,2.81,0,0,1-.21.76,1,1,0,0,1-.3.4.69.69,0,0,1-.39.12H24.79a.6.6,0,0,1-.36-.12.94.94,0,0,1-.31-.4,2.81,2.81,0,0,1-.21-.76,7.67,7.67,0,0,1-.07-1.16,9.89,9.89,0,0,1,.06-1.19,2.67,2.67,0,0,1,.2-.77,1.25,1.25,0,0,1,.3-.43.7.7,0,0,1,.39-.13h5.9V87.45L25.6,90.26a3.71,3.71,0,0,1-.92.33.6.6,0,0,1-.56-.15,1.27,1.27,0,0,1-.28-.72,10.69,10.69,0,0,1-.07-1.44c0-.39,0-.71,0-1a2.79,2.79,0,0,1,.12-.65,1.37,1.37,0,0,1,.27-.44,3.54,3.54,0,0,1,.47-.36l6.8-4.41a1.05,1.05,0,0,1,.3-.15,1.74,1.74,0,0,1,.48-.1,6.89,6.89,0,0,1,.77,0h1.23c.62,0,1.12,0,1.51,0a4.49,4.49,0,0,1,.87.13.67.67,0,0,1,.39.23.69.69,0,0,1,.1.36V108h5.16a.73.73,0,0,1,.4.13,1.15,1.15,0,0,1,.32.43,2.7,2.7,0,0,1,.19.77A9.89,9.89,0,0,1,43.23,110.56Z"/></g></g></svg>