<svg xmlns="http://www.w3.org/2000/svg" viewBox="0 0 67 113.15"><defs><style>.cls-1{fill:#c7c6c6;}.cls-2,.cls-4{fill:#fff;}.cls-2,.cls-3{stroke:#fff;stroke-miterlimit:10;}.cls-3{fill:none;stroke-width:2.83px;}</style></defs><title>Ativo 9</title><g id="Camada_2" data-name="Camada 2"><g id="Camada_1-2" data-name="Camada 1"><g id="_4" data-name="4"><circle class="cls-1" cx="33.5" cy="33.5" r="33.5"/><circle class="cls-2" cx="15.67" cy="29.25" r="3"/><circle class="cls-2" cx="51" cy="29.25" r="3"/><path class="cls-3" d="M22.79,39.73A12.13,12.13,0,0,0,34.17,46c6.28-.45,9.4-5.84,9.62-6.25"/><circle class="cls-4" cx="22.83" cy="39.78" r="1.42"/><circle class="cls-4" cx="43.84" cy="39.64" r="1.42"/></g><path class="cls-1" d="M45.24,103.91A5.37,5.37,0,0,1,45,105.8c-.17.43-.4.65-.69.65H41.47v5.72a.69.69,0,0,1-.14.43,1.1,1.1,0,0,1-.52.31,4.59,4.59,0,0,1-1,.18c-.39,0-.9.06-1.52.06s-1.08,0-1.48-.06a4.46,4.46,0,0,1-1-.18,1,1,0,0,1-.49-.31.69.69,0,0,1-.13-.43v-5.72H23.18a1.91,1.91,0,0,1-.61-.09.81.81,0,0,1-.46-.39,2.3,2.3,0,0,1-.26-.88,10.27,10.27,0,0,1-.09-1.53c0-.52,0-1,0-1.35a7.46,7.46,0,0,1,.12-1,5.65,5.65,0,0,1,.24-.88,7.53,7.53,0,0,1,.41-.88L32.4,82.07a.93.93,0,0,1,.42-.38,2.72,2.72,0,0,1,.81-.27A8.34,8.34,0,0,1,35,81.26c.54,0,1.19-.05,2-.05s1.54,0,2.13.06a8,8,0,0,1,1.41.2,2.08,2.08,0,0,1,.77.33.57.57,0,0,1,.24.46v19h2.82c.26,0,.48.2.67.6A5.07,5.07,0,0,1,45.24,103.91Zm-10-17.15h0L26.9,101.31h8.39Z"/></g></g></svg>