<svg xmlns="http://www.w3.org/2000/svg" viewBox="0 0 67 113.57"><defs><style>.cls-1{fill:#c7c6c6;}.cls-2,.cls-3{fill:#fff;}.cls-3{stroke:#fff;stroke-miterlimit:10;}</style></defs><title>Ativo 10</title><g id="Camada_2" data-name="Camada 2"><g id="Camada_1-2" data-name="Camada 1"><g id="_5" data-name="5"><circle class="cls-1" cx="33.5" cy="33.5" r="33.5"/><path class="cls-2" d="M45.33,37.33a12.4,12.4,0,0,1-24.66-.16Z"/><circle class="cls-3" cx="15.83" cy="29.25" r="3"/><circle class="cls-3" cx="51.17" cy="29.25" r="3"/></g><path class="cls-1" d="M43.87,102.73a11.35,11.35,0,0,1-.89,4.59,9.51,9.51,0,0,1-2.52,3.4,11.35,11.35,0,0,1-3.92,2.11,16.46,16.46,0,0,1-5.07.74,19.11,19.11,0,0,1-2.79-.19,18.83,18.83,0,0,1-2.37-.46,15.21,15.21,0,0,1-1.72-.56,3.88,3.88,0,0,1-.89-.47,1.14,1.14,0,0,1-.3-.4,2.22,2.22,0,0,1-.16-.53,6.08,6.08,0,0,1-.09-.77c0-.31,0-.67,0-1.1s0-.84.05-1.16a2.79,2.79,0,0,1,.16-.77,1.08,1.08,0,0,1,.25-.42.55.55,0,0,1,.35-.12,1.86,1.86,0,0,1,.74.28,14.11,14.11,0,0,0,1.32.63,14.58,14.58,0,0,0,2,.62,12.06,12.06,0,0,0,2.81.28,10.83,10.83,0,0,0,2.58-.29,5.23,5.23,0,0,0,2-.94,4.48,4.48,0,0,0,1.25-1.63,6.3,6.3,0,0,0,.07-4.44,3.82,3.82,0,0,0-1.15-1.55,5.25,5.25,0,0,0-2-1,12.55,12.55,0,0,0-3-.31,20.27,20.27,0,0,0-2.58.14,17.28,17.28,0,0,1-2.19.15,1.28,1.28,0,0,1-1-.36,2.06,2.06,0,0,1-.3-1.3V83.19a2.09,2.09,0,0,1,.38-1.41A1.54,1.54,0,0,1,26,81.36H41a.75.75,0,0,1,.42.14,1.16,1.16,0,0,1,.33.47,3.51,3.51,0,0,1,.19.84A11.31,11.31,0,0,1,42,84.07a6.44,6.44,0,0,1-.25,2.13c-.18.44-.42.66-.75.66H29.71v6.77c.57-.06,1.14-.1,1.7-.12l1.77,0a15.84,15.84,0,0,1,4.56.6,9,9,0,0,1,3.35,1.76,7.35,7.35,0,0,1,2.07,2.88A10.54,10.54,0,0,1,43.87,102.73Z"/></g></g></svg>